<?xml version="1.0" encoding="utf-8"?>
<!-- Generator: Adobe Illustrator 22.1.0, SVG Export Plug-In . SVG Version: 6.00 Build 0)  -->
<svg version="1.1" id="fixed-button" xmlns="http://www.w3.org/2000/svg" xmlns:xlink="http://www.w3.org/1999/xlink" x="0px"
	 y="0px" viewBox="0 0 256 256" style="enable-background:new 0 0 256 256;" xml:space="preserve">
<style type="text/css">
	.st0{fill:#818181;stroke:#FFFFFF;stroke-width:10;stroke-miterlimit:10;}
	.st1{fill:#FFFFFF;}
</style>
<circle class="st0" cx="128" cy="128" r="128"/>
<path class="st1" d="M181,137H75c-4.9,0-9-4.1-9-9l0,0c0-4.9,4-9,9-9h106c4.9,0,9,4,9,9l0,0C190,132.9,185.9,137,181,137z"/>
<path class="st1" d="M181,96H75c-4.9,0-9-4-9-9l0,0c0-4.9,4-9,9-9h106c4.9,0,9,4,9,9l0,0C190,92,185.9,96,181,96z"/>
<path class="st1" d="M181,178H75c-4.9,0-9-4.1-9-9l0,0c0-4.9,4-9,9-9h106c4.9,0,9,4.1,9,9l0,0C190,173.9,185.9,178,181,178z"/>
</svg>
