<?xml version="1.0" encoding="utf-8"?>
<!-- Generator: Adobe Illustrator 22.1.0, SVG Export Plug-In . SVG Version: 6.00 Build 0)  -->
<svg version="1.1" id="レイヤー_1" xmlns="http://www.w3.org/2000/svg" xmlns:xlink="http://www.w3.org/1999/xlink" x="0px"
	 y="0px" viewBox="0 0 256 258" style="enable-background:new 0 0 256 258;" xml:space="preserve">
<style type="text/css">
	.st0{filter:url(#filter-1);}
	.st1{fill:#FFFFFF;}
	.st2{fill:#231815;}
</style>
<filter  filterUnits="objectBoundingBox" height="200%" id="filter-1" width="200%" x="-50%" y="-50%">
	<feOffset  dx="0" dy="2" in="SourceAlpha" result="shadowOffsetOuter1"></feOffset>
	<feGaussianBlur  in="shadowOffsetOuter1" result="shadowBlurOuter1" stdDeviation="1"></feGaussianBlur>
	
		<feColorMatrix  in="shadowBlurOuter1" result="shadowMatrixOuter1" type="matrix" values="0 0 0 0 0   0 0 0 0 0   0 0 0 0 0  0 0 0 0.168 0">
		</feColorMatrix>
	<feOffset  dx="0" dy="0" in="SourceAlpha" result="shadowOffsetOuter2"></feOffset>
	<feGaussianBlur  in="shadowOffsetOuter2" result="shadowBlurOuter2" stdDeviation="1"></feGaussianBlur>
	
		<feColorMatrix  in="shadowBlurOuter2" result="shadowMatrixOuter2" type="matrix" values="0 0 0 0 0   0 0 0 0 0   0 0 0 0 0  0 0 0 0.084 0">
		</feColorMatrix>
	<feMerge>
		<feMergeNode  in="shadowMatrixOuter1"></feMergeNode>
		<feMergeNode  in="shadowMatrixOuter2"></feMergeNode>
		<feMergeNode  in="SourceGraphic"></feMergeNode>
	</feMerge>
</filter>
<g transform="translate(2.000000, 2.000000)">
	<g class="st0">
		<path class="st1" d="M5.1-2h241.8c3.9,0,7.1,3.2,7.1,7.2v243.7c0,4-3.2,7.2-7.1,7.2H5.1c-3.9,0-7.1-3.2-7.1-7.2V5.2
			C-2,1.2,1.2-2,5.1-2z"/>
	</g>
	<path class="st2" d="M100.8,119.7v15.1h25c-1,6.5-7.6,19-25,19c-15.1,0-27.3-12.5-27.3-27.8s12.3-27.8,27.3-27.8
		c8.6,0,14.3,3.7,17.6,6.8l12-11.5c-7.7-7.2-17.6-11.5-29.5-11.5c-24.4,0-44.1,19.7-44.1,44.1s19.7,44.1,44.1,44.1
		c25.5,0,42.3-17.9,42.3-43.1c0-2.9-0.3-5.1-0.7-7.3H100.8L100.8,119.7z"/>
	<path class="st2" d="M195.3,119.7h-12.6v-12.6h-12.6v12.6h-12.6v12.6h12.6v12.6h12.6v-12.6h12.6"/>
</g>
</svg>
