<?xml version="1.0" encoding="utf-8"?>
<!-- Generator: Adobe Illustrator 22.1.0, SVG Export Plug-In . SVG Version: 6.00 Build 0)  -->
<svg version="1.1" id="レイヤー_1" xmlns="http://www.w3.org/2000/svg" xmlns:xlink="http://www.w3.org/1999/xlink" x="0px"
	 y="0px" viewBox="0 0 1920 2500" style="enable-background:new 0 0 1920 2500;" xml:space="preserve">
<style type="text/css">
	.st0{fill:#D1D1D1;}
	.st1{fill:#4B4B4B;}
</style>
<rect class="st0" width="1920" height="2500"/>
<g>
	<path class="st1" d="M1495.5,1321.6c-3.8-12-9.5-23-16.5-32.6c-1.2-1.7-2.2-3.1-3.5-4.7c-2.2-3.7-4.8-7.1-7.8-10.4l-17.5-15.4
		l-79.5-69.9l-42.8-37.6l81.6-72.3c12.3-10.9,13.4-29.6,2.5-41.9c-10.7-12.3-29.5-13.4-41.8-2.6l-87.3,77.3l-246.5,218.1
		c-15.5,13.7-35.3,21-55.7,21c-5.9,0-11.8-0.6-17.8-1.8l-140.9-31.2L652,1280l-119.3-26.4l-17.1-3.8c-5.4-1.8-10.2-4.3-14.4-7.4
		c-6.8-5-12.1-11.3-15.8-18.6c-3.8-7.3-5.8-15.5-5.8-23.9c0-5.1,0.9-10.5,2.4-15.7c1.8-5.6,4.5-10.7,7.8-15.2
		c4.8-6.8,11.3-12.2,18.6-15.8c7.2-3.8,15.4-5.8,23.7-5.8c1.4,0,2.8,0.2,4.2,0.2l123,26.5l285.2,61.7c35.3,7.8,72.1-1.8,99.2-25.8
		l175.3-154.4l179.1-157.7c16.1-14.3,22.9-36.3,17.4-57.1c-5.3-20.9-22-36.9-43.1-41.4l-22.3-4.8l-162.7-35.2l-206-44.5
		c-35.3-7.8-72.1,1.8-99.2,25.8L607.1,982.6l-82.7,72.7l-72,63.3c-3,3.4-5.5,6.8-7.8,10.4c-1.3,1.6-2.4,3-3.5,4.7
		c-7.1,9.6-12.7,20.6-16.5,32.6c-3.5,11.2-5.2,22.6-5.2,33.7c0,24.2,7.8,47.2,21.4,66.1c6.9,9.6,15.2,18.1,25,25.1
		c9.6,7.1,20.6,12.7,32.6,16.4l1.3,0.4l125.5,27.5l24.3,21.6l-3.6,3.1l-82.7,72.7l-72,63.2c-3,3.4-5.5,6.8-7.8,10.5
		c-1.3,1.6-2.4,3-3.5,4.7c-7.1,9.6-12.7,20.6-16.5,32.6c-3.5,11.2-5.2,22.6-5.2,33.8c0,24.1,7.8,47.1,21.4,66.1
		c6.9,9.6,15.2,18.1,25,25.1c9.6,7.1,20.6,12.7,32.6,16.4l1.3,0.4l125.5,27.5l118.9,26l206.4,45.2c10,2.2,20.2,3.3,30.4,3.3
		c34.6,0,68.3-12.4,94.8-35.7l7.1-6.2l245.1-217l81.6-72.3c3.7-3.2,6.2-7,7.9-11.3c8.9-6.8,16.7-14.8,23-23.7
		c13.7-18.9,21.4-41.9,21.4-66.1C1500.7,1344.1,1498.9,1332.7,1495.5,1321.6z M1321.8,1489.1l-246.5,218.1
		c-15.5,13.7-35.3,21.1-55.6,21.1c-5.9,0-11.9-0.6-17.8-1.8L861,1695.2l-170.1-37.6l-119.3-26.4l-17.1-3.8
		c-5.3-1.8-10.2-4.2-14.4-7.4c-6.8-4.9-12.1-11.3-15.8-18.6c-3.8-7.4-5.8-15.5-5.8-23.9c0-5.1,0.9-10.5,2.4-15.7
		c1.8-5.6,4.5-10.7,7.8-15.2c4.8-6.8,11.3-12.1,18.6-15.8c7.2-3.8,15.4-5.8,23.7-5.8c1.4,0,2.8,0.1,4.2,0.1l123,26.6l285.2,61.7
		c35.3,7.8,72.1-1.8,99.3-25.8l76.2-67.1l169.3-37.1L1321.8,1489.1z M1434.6,1379.2c-3.7,7.3-9,13.7-15.8,18.6
		c-4.2,3.1-9,5.5-14.4,7.4l-152.9,33.9L957,1504.1c-5.8,1.3-11.9,1.8-17.8,1.8c-20.3,0-40.1-7.3-55.6-21L744,1361.5l206.4,45.2
		c10,2.2,20.2,3.2,30.3,3.2c34.6,0,68.4-12.4,94.9-35.7l7.1-6.2l301-65.1c1.4,0,2.7-0.1,4.1-0.1c5.3,0,10.6,0.8,15.5,2.4
		c2.8,0.8,5.6,1.9,8.3,3.4c7.2,3.7,13.7,9,18.7,15.8c3.2,4.5,5.7,9.6,7.6,15.2c1.7,5.2,2.4,10.6,2.4,15.7
		C1440.4,1363.6,1438.4,1371.8,1434.6,1379.2z"/>
</g>
</svg>
