<?xml version="1.0" encoding="utf-8"?>
<!-- Generator: Adobe Illustrator 22.1.0, SVG Export Plug-In . SVG Version: 6.00 Build 0)  -->
<svg version="1.1" id="レイヤー_1" xmlns="http://www.w3.org/2000/svg" xmlns:xlink="http://www.w3.org/1999/xlink" x="0px"
	 y="0px" viewBox="0 0 150 150" style="enable-background:new 0 0 150 150;" xml:space="preserve">
<style type="text/css">
	.st0{fill:#FFFFFF;}
</style>
<circle cx="75" cy="75" r="75"/>
<path id="White_2_" class="st0" d="M116,30H35c-2.8,0-5,2.2-5,5v81c0,2.8,2.2,5,5,5h43.6V85.8H66.7V72h11.9V61.9
	c0-11.8,7.2-18.2,17.7-18.2c5,0,9.3,0.4,10.6,0.5v12.3l-7.3,0c-5.7,0-6.8,2.7-6.8,6.7V72h13.6l-1.8,13.7H92.8V121H116
	c2.8,0,5-2.2,5-5V35C121,32.2,118.8,30,116,30z"/>
</svg>
