<?xml version="1.0" encoding="utf-8"?>
<!-- Generator: Adobe Illustrator 22.1.0, SVG Export Plug-In . SVG Version: 6.00 Build 0)  -->
<svg version="1.1" id="レイヤー_1" xmlns="http://www.w3.org/2000/svg" xmlns:xlink="http://www.w3.org/1999/xlink" x="0px"
	 y="0px" viewBox="0 0 400 400" style="enable-background:new 0 0 400 400;" xml:space="preserve">
<style type="text/css">
	.st0{fill:#FFFFFF;}
</style>
<circle cx="200" cy="200" r="200"/>
<g id="Logo__x2014__FIXED">
	<g>
		<path class="st0" d="M162.2,282.7c76.7,0,118.7-63.7,118.7-118.7c0-1.8,0-3.6-0.1-5.4c8.1-5.9,15.2-13.3,20.9-21.7
			c-7.5,3.4-15.5,5.5-24,6.6c8.6-5.1,15.2-13.3,18.4-23.2c-8.1,4.8-17,8.2-26.5,10.1c-7.7-8.1-18.4-13.2-30.4-13.2
			c-23,0-41.7,18.7-41.7,41.7c0,3.2,0.4,6.5,1.1,9.6c-34.6-1.8-65.4-18.4-86-43.6c-3.6,6.2-5.7,13.3-5.7,21
			c0,14.5,7.4,27.2,18.6,34.7c-6.9-0.3-13.3-2.2-18.8-5.3c0,0.1,0,0.3,0,0.5c0,20.2,14.4,37.2,33.4,40.9c-3.5,0.9-7.1,1.5-11,1.5
			c-2.7,0-5.3-0.3-7.8-0.7c5.3,16.6,20.7,28.7,39,28.9c-14.3,11.2-32.3,17.9-51.8,17.9c-3.4,0-6.7-0.1-10-0.5
			C116.7,275.7,138.6,282.7,162.2,282.7"/>
	</g>
</g>
</svg>
